<svg viewBox="0 0 735 196" class="h-full">
<rect style="fill: #f3f4f6;" x="0" y="20" width="735" height="150">
</rect>
<line style="stroke: #e5e7eb;" stroke-linecap="square" x1="0" y1="170" x2="0" y2="20" stroke-dasharray="4">
</line>
<line style="stroke: #e5e7eb;" stroke-linecap="square" x1="15" y1="170" x2="15" y2="20" stroke-dasharray="4">
</line>
<line style="stroke: #e5e7eb;" stroke-linecap="square" x1="30" y1="170" x2="30" y2="20" stroke-dasharray="4">
</line>
<line style="stroke: #e5e7eb;" stroke-linecap="square" x1="45" y1="170" x2="45" y2="20" stroke-dasharray="4">
</line>
<line style="stroke: #e5e7eb;" stroke-linecap="square" x1="60" y1="170" x2="60" y2="20" stroke-dasharray="4">
</line>
<line style="stroke: #e5e7eb;" stroke-linecap="square" x1="75" y1="170" x2="75" y2="20" stroke-dasharray="4">
</line>
<line style="stroke: #e5e7eb;" stroke-linecap="square" x1="90" y1="170" x2="90" y2="20" stroke-dasharray="4">
</line>
<line style="stroke: #e5e7eb;" stroke-linecap="square" x1="105" y1="170" x2="105" y2="20" stroke-dasharray="4">
</line>
<line style="stroke: #e5e7eb;" stroke-linecap="square" x1="120" y1="170" x2="120" y2="20" stroke-dasharray="4">
</line>
<line style="stroke: #e5e7eb;" stroke-linecap="square" x1="135" y1="170" x2="135" y2="20" stroke-dasharray="4">
</line>
<line style="stroke: #e5e7eb;" stroke-linecap="square" x1="150" y1="170" x2="150" y2="20" stroke-dasharray="4">
</line>
<line style="stroke: #e5e7eb;" stroke-linecap="square" x1="165" y1="170" x2="165" y2="20" stroke-dasharray="4">
</line>
<line style="stroke: #e5e7eb;" stroke-linecap="square" x1="180" y1="170" x2="180" y2="20" stroke-dasharray="4">
</line>
<line style="stroke: #e5e7eb;" stroke-linecap="square" x1="195" y1="170" x2="195" y2="20" stroke-dasharray="4">
</line>
<line style="stroke: #e5e7eb;" stroke-linecap="square" x1="210" y1="170" x2="210" y2="20" stroke-dasharray="4">
</line>
<line style="stroke: #e5e7eb;" stroke-linecap="square" x1="225" y1="170" x2="225" y2="20" stroke-dasharray="4">
</line>
<line style="stroke: #e5e7eb;" stroke-linecap="square" x1="240" y1="170" x2="240" y2="20" stroke-dasharray="4">
</line>
<line style="stroke: #e5e7eb;" stroke-linecap="square" x1="255" y1="170" x2="255" y2="20" stroke-dasharray="4">
</line>
<line style="stroke: #e5e7eb;" stroke-linecap="square" x1="270" y1="170" x2="270" y2="20" stroke-dasharray="4">
</line>
<line style="stroke: #e5e7eb;" stroke-linecap="square" x1="285" y1="170" x2="285" y2="20" stroke-dasharray="4">
</line>
<line style="stroke: #e5e7eb;" stroke-linecap="square" x1="300" y1="170" x2="300" y2="20" stroke-dasharray="4">
</line>
<line style="stroke: #e5e7eb;" stroke-linecap="square" x1="315" y1="170" x2="315" y2="20" stroke-dasharray="4">
</line>
<line style="stroke: #e5e7eb;" stroke-linecap="square" x1="330" y1="170" x2="330" y2="20" stroke-dasharray="4">
</line>
<line style="stroke: #e5e7eb;" stroke-linecap="square" x1="345" y1="170" x2="345" y2="20" stroke-dasharray="4">
</line>
<line style="stroke: #e5e7eb;" stroke-linecap="square" x1="360" y1="170" x2="360" y2="20" stroke-dasharray="4">
</line>
<line style="stroke: #e5e7eb;" stroke-linecap="square" x1="375" y1="170" x2="375" y2="20" stroke-dasharray="4">
</line>
<line style="stroke: #e5e7eb;" stroke-linecap="square" x1="390" y1="170" x2="390" y2="20" stroke-dasharray="4">
</line>
<line style="stroke: #e5e7eb;" stroke-linecap="square" x1="405" y1="170" x2="405" y2="20" stroke-dasharray="4">
</line>
<line style="stroke: #e5e7eb;" stroke-linecap="square" x1="420" y1="170" x2="420" y2="20" stroke-dasharray="4">
</line>
<line style="stroke: #e5e7eb;" stroke-linecap="square" x1="435" y1="170" x2="435" y2="20" stroke-dasharray="4">
</line>
<line style="stroke: #e5e7eb;" stroke-linecap="square" x1="450" y1="170" x2="450" y2="20" stroke-dasharray="4">
</line>
<line style="stroke: #e5e7eb;" stroke-linecap="square" x1="465" y1="170" x2="465" y2="20" stroke-dasharray="4">
</line>
<line style="stroke: #e5e7eb;" stroke-linecap="square" x1="480" y1="170" x2="480" y2="20" stroke-dasharray="4">
</line>
<line style="stroke: #e5e7eb;" stroke-linecap="square" x1="495" y1="170" x2="495" y2="20" stroke-dasharray="4">
</line>
<line style="stroke: #e5e7eb;" stroke-linecap="square" x1="510" y1="170" x2="510" y2="20" stroke-dasharray="4">
</line>
<line style="stroke: #e5e7eb;" stroke-linecap="square" x1="525" y1="170" x2="525" y2="20" stroke-dasharray="4">
</line>
<line style="stroke: #e5e7eb;" stroke-linecap="square" x1="540" y1="170" x2="540" y2="20" stroke-dasharray="4">
</line>
<line style="stroke: #e5e7eb;" stroke-linecap="square" x1="555" y1="170" x2="555" y2="20" stroke-dasharray="4">
</line>
<line style="stroke: #e5e7eb;" stroke-linecap="square" x1="570" y1="170" x2="570" y2="20" stroke-dasharray="4">
</line>
<line style="stroke: #e5e7eb;" stroke-linecap="square" x1="585" y1="170" x2="585" y2="20" stroke-dasharray="4">
</line>
<line style="stroke: #e5e7eb;" stroke-linecap="square" x1="600" y1="170" x2="600" y2="20" stroke-dasharray="4">
</line>
<line style="stroke: #e5e7eb;" stroke-linecap="square" x1="615" y1="170" x2="615" y2="20" stroke-dasharray="4">
</line>
<line style="stroke: #e5e7eb;" stroke-linecap="square" x1="630" y1="170" x2="630" y2="20" stroke-dasharray="4">
</line>
<line style="stroke: #e5e7eb;" stroke-linecap="square" x1="645" y1="170" x2="645" y2="20" stroke-dasharray="4">
</line>
<line style="stroke: #e5e7eb;" stroke-linecap="square" x1="660" y1="170" x2="660" y2="20" stroke-dasharray="4">
</line>
<line style="stroke: #e5e7eb;" stroke-linecap="square" x1="675" y1="170" x2="675" y2="20" stroke-dasharray="4">
</line>
<line style="stroke: #e5e7eb;" stroke-linecap="square" x1="690" y1="170" x2="690" y2="20" stroke-dasharray="4">
</line>
<line style="stroke: #e5e7eb;" stroke-linecap="square" x1="705" y1="170" x2="705" y2="20" stroke-dasharray="4">
</line>
<line style="stroke: #e5e7eb;" stroke-linecap="square" x1="720" y1="170" x2="720" y2="20" stroke-dasharray="4">
</line>
<line style="stroke: #e5e7eb;" stroke-linecap="square" x1="735" y1="170" x2="735" y2="20" stroke-dasharray="4">
</line>
<line style="stroke: #000;" stroke-linecap="square" x1="0" y1="170" x2="735" y2="170">
</line>
<line style="stroke: #000;" stroke-linecap="square" x1="1" y1="170" x2="1" y2="175">
</line>
<text x="0" y="180" font-size="10px" dominant-baseline="hanging" text-anchor="start">12 Dec</text>
<line style="stroke: #000;" stroke-linecap="square" x1="15" y1="170" x2="15" y2="173">
</line>
<line style="stroke: #000;" stroke-linecap="square" x1="30" y1="170" x2="30" y2="173">
</line>
<line style="stroke: #000;" stroke-linecap="square" x1="45" y1="170" x2="45" y2="173">
</line>
<line style="stroke: #000;" stroke-linecap="square" x1="60" y1="170" x2="60" y2="173">
</line>
<line style="stroke: #000;" stroke-linecap="square" x1="75" y1="170" x2="75" y2="173">
</line>
<line style="stroke: #000;" stroke-linecap="square" x1="90" y1="170" x2="90" y2="173">
</line>
<line style="stroke: #000;" stroke-linecap="square" x1="105" y1="170" x2="105" y2="175">
</line>
<text x="105" y="180" font-size="10px" dominant-baseline="hanging" text-anchor="middle">19 Dec</text>
<line style="stroke: #000;" stroke-linecap="square" x1="120" y1="170" x2="120" y2="173">
</line>
<line style="stroke: #000;" stroke-linecap="square" x1="135" y1="170" x2="135" y2="173">
</line>
<line style="stroke: #000;" stroke-linecap="square" x1="150" y1="170" x2="150" y2="173">
</line>
<line style="stroke: #000;" stroke-linecap="square" x1="165" y1="170" x2="165" y2="173">
</line>
<line style="stroke: #000;" stroke-linecap="square" x1="180" y1="170" x2="180" y2="173">
</line>
<line style="stroke: #000;" stroke-linecap="square" x1="195" y1="170" x2="195" y2="173">
</line>
<line style="stroke: #000;" stroke-linecap="square" x1="210" y1="170" x2="210" y2="175">
</line>
<text x="210" y="180" font-size="10px" dominant-baseline="hanging" text-anchor="middle">26 Dec</text>
<line style="stroke: #000;" stroke-linecap="square" x1="225" y1="170" x2="225" y2="173">
</line>
<line style="stroke: #000;" stroke-linecap="square" x1="240" y1="170" x2="240" y2="173">
</line>
<line style="stroke: #000;" stroke-linecap="square" x1="255" y1="170" x2="255" y2="173">
</line>
<line style="stroke: #000;" stroke-linecap="square" x1="270" y1="170" x2="270" y2="173">
</line>
<line style="stroke: #000;" stroke-linecap="square" x1="285" y1="170" x2="285" y2="173">
</line>
<line style="stroke: #000;" stroke-linecap="square" x1="300" y1="170" x2="300" y2="173">
</line>
<line style="stroke: #000;" stroke-linecap="square" x1="315" y1="170" x2="315" y2="175">
</line>
<text x="315" y="180" font-size="10px" dominant-baseline="hanging" text-anchor="middle">2 Jan</text>
<line style="stroke: #000;" stroke-linecap="square" x1="330" y1="170" x2="330" y2="173">
</line>
<line style="stroke: #000;" stroke-linecap="square" x1="345" y1="170" x2="345" y2="173">
</line>
<line style="stroke: #000;" stroke-linecap="square" x1="360" y1="170" x2="360" y2="173">
</line>
<line style="stroke: #000;" stroke-linecap="square" x1="375" y1="170" x2="375" y2="173">
</line>
<line style="stroke: #000;" stroke-linecap="square" x1="390" y1="170" x2="390" y2="173">
</line>
<line style="stroke: #000;" stroke-linecap="square" x1="405" y1="170" x2="405" y2="173">
</line>
<line style="stroke: #000;" stroke-linecap="square" x1="420" y1="170" x2="420" y2="175">
</line>
<text x="420" y="180" font-size="10px" dominant-baseline="hanging" text-anchor="middle">9 Jan</text>
<line style="stroke: #000;" stroke-linecap="square" x1="435" y1="170" x2="435" y2="173">
</line>
<line style="stroke: #000;" stroke-linecap="square" x1="450" y1="170" x2="450" y2="173">
</line>
<line style="stroke: #000;" stroke-linecap="square" x1="465" y1="170" x2="465" y2="173">
</line>
<line style="stroke: #000;" stroke-linecap="square" x1="480" y1="170" x2="480" y2="173">
</line>
<line style="stroke: #000;" stroke-linecap="square" x1="495" y1="170" x2="495" y2="173">
</line>
<line style="stroke: #000;" stroke-linecap="square" x1="510" y1="170" x2="510" y2="173">
</line>
<line style="stroke: #000;" stroke-linecap="square" x1="525" y1="170" x2="525" y2="175">
</line>
<text x="525" y="180" font-size="10px" dominant-baseline="hanging" text-anchor="middle">16 Jan</text>
<line style="stroke: #000;" stroke-linecap="square" x1="540" y1="170" x2="540" y2="173">
</line>
<line style="stroke: #000;" stroke-linecap="square" x1="555" y1="170" x2="555" y2="173">
</line>
<line style="stroke: #000;" stroke-linecap="square" x1="570" y1="170" x2="570" y2="173">
</line>
<line style="stroke: #000;" stroke-linecap="square" x1="585" y1="170" x2="585" y2="173">
</line>
<line style="stroke: #000;" stroke-linecap="square" x1="600" y1="170" x2="600" y2="173">
</line>
<line style="stroke: #000;" stroke-linecap="square" x1="615" y1="170" x2="615" y2="173">
</line>
<line style="stroke: #000;" stroke-linecap="square" x1="630" y1="170" x2="630" y2="175">
</line>
<text x="630" y="180" font-size="10px" dominant-baseline="hanging" text-anchor="middle">23 Jan</text>
<line style="stroke: #000;" stroke-linecap="square" x1="645" y1="170" x2="645" y2="173">
</line>
<line style="stroke: #000;" stroke-linecap="square" x1="660" y1="170" x2="660" y2="173">
</line>
<line style="stroke: #000;" stroke-linecap="square" x1="675" y1="170" x2="675" y2="173">
</line>
<line style="stroke: #000;" stroke-linecap="square" x1="690" y1="170" x2="690" y2="173">
</line>
<line style="stroke: #000;" stroke-linecap="square" x1="705" y1="170" x2="705" y2="173">
</line>
<line style="stroke: #000;" stroke-linecap="square" x1="720" y1="170" x2="720" y2="173">
</line>
<line style="stroke: #000;" stroke-linecap="square" x1="734" y1="170" x2="734" y2="175">
</line>
<text x="735" y="180" font-size="10px" dominant-baseline="hanging" text-anchor="end">30 Jan</text>
<line style="stroke: #e5e7eb;" stroke-linecap="square" x1="0" y1="140" x2="735" y2="140" stroke-dasharray="4">
</line>
<line style="stroke: #e5e7eb;" stroke-linecap="square" x1="0" y1="110" x2="735" y2="110" stroke-dasharray="4">
</line>
<line style="stroke: #e5e7eb;" stroke-linecap="square" x1="0" y1="80" x2="735" y2="80" stroke-dasharray="4">
</line>
<line style="stroke: #e5e7eb;" stroke-linecap="square" x1="0" y1="50" x2="735" y2="50" stroke-dasharray="4">
</line>
<line style="stroke: #e5e7eb;" stroke-linecap="square" x1="0" y1="20" x2="735" y2="20" stroke-dasharray="4">
</line>
<path fill="none" style="stroke: #a855f7;" stroke-width="2" stroke-linecap="round" stroke-linejoin="round" d="M 645,145">
</path>
<path fill="none" style="stroke: #ec4899;" stroke-width="2" stroke-linecap="round" stroke-linejoin="round" d="M 645,160">
</path>
<path fill="none" style="stroke: #3b82f6;" stroke-width="2" stroke-linecap="round" stroke-linejoin="round" d="M 645,160 C 645,160 666,140 675,120 C 684,100 684,50 690,60 C 696,70 702,148 705,170">
</path>
<path fill="none" style="stroke: #f97316;" stroke-width="2" stroke-linecap="round" stroke-linejoin="round" d="M 15,160 C 15,160 -96,168 30,170 C 156,172 522,170 645,170">
</path>
<path fill="none" style="stroke: #22c55e;" stroke-width="2" stroke-linecap="round" stroke-linejoin="round" d="M 645,160">
</path>
<path fill="none" style="stroke: #84cc16;" stroke-width="2" stroke-linecap="round" stroke-linejoin="round" d="M 15,140 C 15,140 -111,152 30,150 C 171,148 582,134 720,130">
</path>
</svg>